<svg version="1.1" id="Ebene_1" xmlns="http://www.w3.org/2000/svg" xmlns:xlink="http://www.w3.org/1999/xlink" x="0px" y="0px" viewBox="0 0 320 320" style="enable-background:new 0 0 320 320;" xml:space="preserve">
<style type="text/css">
	.st0{fill:#FFFFFF;}
</style>
<path class="st0" d="M317.8,156.7L175.1,37.8c-4.2-3.4-9.3-5.1-15.1-5.1c-5.8,0-10.9,1.7-15.1,5.1L2.2,156.7c-1.3,1.1-2,2.5-2.2,4.3  c-0.1,1.8,0.3,3.4,1.4,4.7l12.3,14.7c1,1.2,2.4,1.9,4.2,2.2c1.6,0.1,3.2-0.3,4.8-1.4l23-19.2v112.7c0,3.4,1.3,6.4,3.8,8.9  c2.5,2.5,5.5,3.8,8.9,3.8h76.2v-76.2h50.8v76.2h76.2c3.4,0,6.4-1.3,8.9-3.8c2.5-2.5,3.8-5.5,3.8-8.9V161.9l23,19.2  c1,0.9,2.4,1.4,4.2,1.4h0.6c1.7-0.3,3.1-1,4.2-2.2l12.3-14.7c1.1-1.3,1.5-2.9,1.4-4.7C319.8,159.2,319.1,157.8,317.8,156.7z"/>
</svg>